<svg width="30" height="30" viewBox="0 0 30 30" fill="none" xmlns="http://www.w3.org/2000/svg">
<path d="M29.7001 14.9788C29.7001 14.6218 29.5771 14.2948 29.3701 14.0338C29.3071 13.9318 29.2321 13.8328 29.1451 13.7458L24.3271 8.93085C23.7331 8.33685 22.7701 8.33685 22.1761 8.93085C21.5821 9.52485 21.5821 10.4878 22.1761 11.0818L24.5551 13.4608H12.9331C12.0931 13.4608 11.4121 14.1418 11.4121 14.9818C11.4121 15.8218 12.0931 16.5028 12.9331 16.5028H24.5491L22.2541 18.7978C21.6601 19.3918 21.6601 20.3548 22.2541 20.9488C22.5511 21.2458 22.9411 21.3928 23.3281 21.3928C23.7181 21.3928 24.1051 21.2458 24.4021 20.9488L29.2201 16.1308C29.3701 15.9808 29.4841 15.8038 29.5591 15.6178C29.6491 15.4198 29.7001 15.2068 29.7001 14.9788Z" fill="#FFFFFF"/>
<path d="M19.4371 22.662C18.5971 22.662 17.9161 23.343 17.9161 24.183V26.634H3.34205V3.36598H17.9161V6.29398C17.9161 7.13398 18.5971 7.81498 19.4371 7.81498C20.2771 7.81498 20.9581 7.13398 20.9581 6.29398V2.73898C20.9581 1.40697 19.8751 0.323975 18.543 0.323975H2.71505C1.38305 0.323975 0.300049 1.40697 0.300049 2.73898V27.258C0.300049 28.59 1.38305 29.673 2.71505 29.673H18.5401C19.8721 29.673 20.9551 28.59 20.9551 27.258V24.183C20.9581 23.343 20.2771 22.662 19.4371 22.662Z" fill="#FFFFFF"/>
</svg>
