<svg width="186" height="183" viewBox="0 0 186 183" fill="none" xmlns="http://www.w3.org/2000/svg">
<path d="M146.229 138.626C146.229 141.025 144.283 143.425 141.353 143.425C138.915 143.425 136.477 141.509 136.477 138.626V138.142V137.659C133.547 116.548 115.025 101.203 93.1014 101.203H92.61H92.1186C70.1757 101.203 52.1451 116.548 48.7431 137.175C48.7431 137.659 48.7431 138.142 48.7431 138.607V139.091C48.7431 141.974 46.305 143.89 43.8669 143.89C41.4288 143.89 38.9907 141.49 38.9907 139.091V138.607C38.9907 138.124 38.9907 137.64 38.9907 137.64C41.4288 118.445 54.5832 102.616 72.6138 95.9016C62.37 89.187 55.5471 77.6736 55.5471 64.728C55.5471 44.1006 71.631 27.7884 92.5911 27.7884C113.551 27.7884 129.635 44.5842 129.635 64.728C129.635 78.1572 122.812 89.6706 112.568 95.9016C130.108 102.616 143.281 117.961 146.191 137.156C146.229 137.194 146.229 137.677 146.229 138.626ZM120.884 64.2816C120.884 48.9366 108.202 36.456 92.61 36.456C77.0175 36.456 64.3356 48.9366 64.3356 64.2816C64.3356 79.6266 77.0175 92.1072 92.61 92.1072C108.202 92.1072 120.884 79.6266 120.884 64.2816Z" fill="#A9BEC9"/>
<path d="M92.61 182.28C41.4288 182.28 0 141.509 0 91.14C0 40.7712 41.4288 0 92.61 0C143.791 0 185.22 40.7712 185.22 91.14C185.22 141.509 143.791 182.28 92.61 182.28ZM92.61 8.1468C46.305 8.1468 8.2782 45.0864 8.2782 91.14C8.2782 137.194 45.8136 174.133 92.61 174.133C139.406 174.133 176.942 137.194 176.942 91.14C176.942 45.0864 138.915 8.1468 92.61 8.1468Z" fill="#A9BEC9"/>
</svg>
